<svg xmlns="http://www.w3.org/2000/svg" xmlns:cc="http://web.resource.org/cc/" xmlns:svg="http://www.w3.org/2000/svg" xmlns:xlink="http://www.w3.org/1999/xlink" id="svg2" width="512" height="512" version="1.0"><defs id="defs4"><linearGradient id="linearGradient3426"><stop style="stop-color:#ec4e18;stop-opacity:1" id="stop3428" offset="0"/><stop style="stop-color:#ec4e18;stop-opacity:0" id="stop3430" offset="1"/></linearGradient><linearGradient id="linearGradient2449"><stop style="stop-color:#a22411;stop-opacity:0" id="stop2451" offset="0"/><stop style="stop-color:#ffb59b;stop-opacity:.50196081" id="stop2453" offset="1"/></linearGradient><radialGradient id="radialGradient3451" cx="43.221" cy="119.602" r="256" fx="43.221" fy="119.602" gradientTransform="matrix(1.2926397,1.37543,-1.1994782,1.127292,131.50372,-150.36091)" gradientUnits="userSpaceOnUse" xlink:href="#linearGradient3426"/><filter id="filter3577" width="1.18" height="1.324" x="-.09" y="-.162"><feGaussianBlur id="feGaussianBlur3579" stdDeviation="15.998"/></filter><filter id="filter5575" width="1.214" height="1.382" x="-.107" y="-.191"><feGaussianBlur id="feGaussianBlur5577" stdDeviation="18.957"/></filter><filter id="filter3179"><feGaussianBlur id="feGaussianBlur3181" stdDeviation="1.495"/></filter></defs><metadata id="metadata7"/><g id="layer1"><rect style="stroke-width:3.30999994;stroke-linecap:round;stroke-miterlimit:4;stroke-dasharray:none;fill:#a22411;fill-opacity:1" id="rect2443" width="512" height="512" x="0" y="0" ry="37.372"/><rect id="rect2447" width="512" height="512" x="0" y="0" ry="37.372" style="stroke-width:3.30999994;stroke-linecap:round;stroke-miterlimit:4;stroke-dasharray:none;fill:url(#radialGradient3451);fill-opacity:1"/><path style="fill:#fff;fill-rule:evenodd;stroke:none;stroke-width:1px;stroke-linecap:butt;stroke-linejoin:miter;stroke-opacity:1;filter:url(#filter3577)" id="path2423" d="M 116.78832,338.21898 L 48.583942,278.42336 L 135.47445,243.85401 L 122.39416,152.29197 L 207.41606,184.05839 L 261.60584,100.90511 L 311.12409,184.05839 L 398.0146,152.29197 L 382.13139,243.85401 L 475.56204,278.42336 L 401.75182,338.21898 L 388.67153,338.21898 C 398.32603,137.6545 122.96335,134.51054 131.73723,338.21898 L 116.78832,338.21898 z"/><path style="opacity:.55963303;fill:#ffa825;fill-opacity:.99473685;fill-rule:evenodd;stroke:none;stroke-width:1px;stroke-linecap:butt;stroke-linejoin:miter;stroke-opacity:1;filter:url(#filter5575)" id="path3607" d="M 116.78832,338.21898 L 51.11044,265.97683 L 136.31662,233.89679 L 123.23633,139.01567 L 204.0474,173.2714 L 261.60584,100.90511 L 314.49275,174.10117 L 395.4881,142.33475 L 388.02655,231.40748 L 475.56204,267.63637 L 401.75182,338.21898 L 365.93305,338.21898 C 374.74539,153.42011 143.17533,163.55245 155.31787,339.04875 L 116.78832,338.21898 z" transform="matrix(1.1094092,0,0,1.1259843,-28.673194,-27.66136)"/><path id="path3581" d="M 116.78832,338.21898 L 48.583942,278.42336 L 135.47445,243.85401 L 122.39416,152.29197 L 207.41606,184.05839 L 261.60584,100.90511 L 311.12409,184.05839 L 398.0146,152.29197 L 382.13139,243.85401 L 475.56204,278.42336 L 401.75182,338.21898 L 388.67153,338.21898 C 398.32603,137.6545 122.96335,134.51054 131.73723,338.21898 L 116.78832,338.21898 z" style="fill:#fff;fill-rule:evenodd;stroke:none;stroke-width:1px;stroke-linecap:butt;stroke-linejoin:miter;stroke-opacity:1;filter:url(#filter3179)"/></g></svg>